<?xml version="1.0" encoding="utf-8"?>
<!-- Generator: Adobe Illustrator 21.1.0, SVG Export Plug-In . SVG Version: 6.00 Build 0)  -->
<svg version="1.1" id="Слой_1" xmlns="http://www.w3.org/2000/svg" xmlns:xlink="http://www.w3.org/1999/xlink" x="0px" y="0px"
	 viewBox="0 0 1049 317.8" style="enable-background:new 0 0 1049 317.8;" xml:space="preserve">
<style type="text/css">
	.st0{fill:#131F39;}
</style>
<path class="st0" d="M166.4,271.1C85.1,285,9.6,223.1,8.2,139.7C6.9,62.5,71-2.6,152,2.4c42.5,2.7,76.9,21.8,101.7,56.4
	s30.8,73.3,20.7,114.4c30.5,21.5,42.7,49.9,33.9,86.6c-9.9,30.3-30.5,48.8-61.8,53.9C213.1,319.1,180.9,301.4,166.4,271.1z
	 M244.8,163.4c0.3-1,0.6-2,0.8-2.8c7.2-40.7-6.8-81.5-40.3-106.7c-8.6-6.5-18.2-11.6-28.4-15.1c-38.2-12.9-83.3-1.2-110.5,28.5
	s-34.5,75.9-18,112.7c15.6,34.9,51.9,59.5,90.1,61.5c4.4,0.2,8.8-0.1,13.3-0.2c2.4-0.1,4.9-0.5,7.4-0.7c0.1-23.2,8.1-42.6,25.1-58
	C201.5,167.1,221.8,161.2,244.8,163.4z M235.5,194.2c-16.3,0.1-32.4,9.7-39.8,24.2c-8.5,16.6-5.2,38.9,8.4,51.9
	c14,13.3,35.8,16.9,53,7.4c16.2-9,25.6-28.7,22.2-47s-19.1-33.4-37.4-36.2C239.7,194.4,237.6,194.2,235.5,194.2z"/>
<path class="st0" d="M603.9,164.3c0,1.7,0,2.9,0,4.1c0,14.9,0,29.8,0,44.7c0,0.8,0,1.6,0,2.4c-0.2,2.3-1.5,3.7-4,3.7
	c-6.1,0.1-12.2,0.1-18.3,0c-2.6,0-3.7-1.4-4-4c-0.1-0.7,0-1.4,0-2.1c0-42.8,0-85.7,0-128.5c0-0.7,0-1.4,0-2.1c0.1-2.7,1.5-4,4.1-4.2
	c0.3,0,0.8,0,1.2,0c18.9,0,37.6-0.1,56.4,0c18.2,0.1,34.1,11.1,40.6,27.7c6.8,17.2,1.7,36-12.8,48c-4.1,3.4-8.7,6.1-14,8.3
	c0.6,1,1,2,1.5,2.9c8.3,15.4,16.5,30.6,24.8,46c0.6,0.9,1,2,1.4,3c0.8,2.6-0.6,4.9-3.3,4.9c-6.1,0.1-12.2,0.2-18.3-0.2
	c-4.1-0.3-7.2-2.9-9.1-6.6c-3.5-6.9-16.9-33.3-19.9-39.7c-2.9-5.8-7.4-8.6-14-8.5C612.5,164.3,608.4,164.3,603.9,164.3z
	 M604.3,102.8c0,13.3,0,26.4,0,39.7c0.6,0.1,0.9,0.2,1.3,0.2c10.7,0,21.4,0.2,32.1,0c12.9-0.3,22.2-14.2,18-26.4
	c-2.7-7.9-10.4-13.5-19-13.6c-10.1-0.1-20.1,0-30.3,0C605.8,102.6,605.1,102.8,604.3,102.8z"/>
<path class="st0" d="M374.7,84.7c0-0.7,0-1.4,0-2.1c0.1-2.6,1.5-4.1,4.2-4.2c3.4-0.1,6.8-0.1,10.2,0c5.8,0.3,11.1,5,12.1,10.8
	c0.3,1.6,0.3,3.4,0.3,5.1c0,22.7,0,45.4,0,68.1c0,4,0.2,7.9,1.4,11.9c3.5,12.1,14.2,21.6,30,20.7c13-0.8,24-10.4,26.3-23.5
	c0.5-2.8,0.8-55.9,0.6-79.5c0-5,3.5-11.4,9.9-13.2c0.8-0.2,1.7-0.5,2.7-0.5c3.3-0.1,6.6-0.1,9.9,0c2.8,0.1,4.2,1.4,4.4,4.2
	c0,0.7,0,1.4,0,2.1c0,27,0,54,0,81c0,27.8-19.7,50.6-47.1,54.8c-27,4.2-52.7-10.7-61.7-35.8c-2.1-5.9-3.3-12.1-3.3-18.5
	C374.7,152.9,374.7,98.5,374.7,84.7z"/>
<path class="st0" d="M846.4,193.8c-20,0-39.9,0-60.1,0c-0.6,1.3-1.3,2.6-1.9,4c-2,4.4-4,8.7-5.9,13.2c-2.6,5.7-7,8.6-13.3,8.5
	c-3.7,0-7.4,0-11.1,0c-4.5,0-5.9-2.2-4.1-6.4c10-21.6,50.9-110.2,61.3-132.9c1.5-3.3,2.4-3.8,5.7-3.7c2.1,0,3.4,0.9,4.2,2.8
	c2.1,4.8,4.3,9.4,6.5,14.2c18,39.5,36.1,78.9,54.1,118.4c0.5,0.9,0.9,1.7,1.2,2.8c0.7,2.6-0.5,4.7-3,4.8c-5.4,0.1-10.8,0.3-16.2-0.2
	c-4.3-0.5-7.4-3.3-9.3-7.2c-2.4-5.1-4.8-10.4-7.1-15.6C847.2,195.4,846.9,194.7,846.4,193.8z M836.4,171
	c-6.8-14.8-13.3-29.3-19.9-43.8c-0.2,0-0.5,0-0.7-0.1c-6.5,14.5-12.9,29.1-19.6,43.9C809.9,171,822.9,171,836.4,171z"/>
<path class="st0" d="M993.8,76.5c14.5,0,27.7,4.5,39.6,12.7c3.4,2.3,3.8,4.7,1.6,8.1c-1,1.6-2.1,3.1-3.1,4.8
	c-3.8,5.5-10.6,7.4-16.8,4.8c-1.5-0.7-3-1.5-4.5-2.2c-4.3-2.1-8.7-4-13.5-4.9c-5-0.9-9.8-0.5-14.2,2.1c-7.8,4.3-9.9,13.2-4.8,20.5
	c2.1,3,4.9,5.4,8,7.1c4.3,2.3,8.7,4.4,13.2,6.5c5.6,2.7,11.4,5,16.8,8c4.3,2.4,8.5,5.4,12.1,8.7c19.3,17.7,16.5,47.1-5.6,61.1
	c-7.2,4.5-15.1,6.9-23.5,7.3c-15.5,0.8-30-2.4-43.1-11.2c-2.1-1.4-4.1-3.3-6.1-4.9c-1.6-1.4-1.7-3.1-0.8-4.9c1.3-2.2,2.4-4.7,4-6.8
	c3.5-5,11.1-6.6,16.8-3.8c3.7,1.9,7.4,4,11.3,5.6c4.5,2,9.3,3.1,14.3,2.8c3.1-0.1,6.2-0.9,8.8-2.6c7.9-4.5,10.2-13.6,5.5-21.4
	c-2-3.3-4.8-5.9-8.1-7.9c-4.7-2.7-9.5-5-14.4-7.3c-4.9-2.4-10-4.5-14.8-7.2c-3.8-2.2-7.6-4.9-10.8-7.9
	c-22.2-20.4-14.4-55.2,14.2-64.5C981.7,77.3,987.6,76.3,993.8,76.5z"/>
</svg>
