<?xml version="1.0" encoding="utf-8"?>
<!-- Generator: Adobe Illustrator 19.0.0, SVG Export Plug-In . SVG Version: 6.00 Build 0)  -->
<svg version="1.1" id="Layer_1" xmlns="http://www.w3.org/2000/svg" xmlns:xlink="http://www.w3.org/1999/xlink" x="0px" y="0px"
	 viewBox="0 0 4975.5 1568" style="enable-background:new 0 0 4975.5 1568;" xml:space="preserve">
<path d="M780,1323.7c-383.2,65.6-739.5-226.1-746.3-619.9C27.5,340.1,329.9,32.9,712,56.6c200.6,12.4,362.7,102.7,479.8,266.3
	c117.1,163.7,145.4,345.8,97.5,539.5c143.6,101.4,201.5,235.4,159.7,408.4c-46.5,142.9-143.6,230.1-291.7,254.2
	C1000.3,1550.5,848.3,1466.7,780,1323.7z M1149.8,816.1c1.4-5.2,2.9-9.2,3.6-13.2c33.9-192.4-32-384.2-189.7-503.6
	c-40.5-30.7-85.7-55.1-133.8-71.4C650,167,436.6,222.2,308.9,362.6S146.4,720.7,224,894c73.7,164.7,244.8,280.4,424.7,289.9
	c20.9,1.1,41.8-0.3,62.8-1.3c11.6-0.5,23.2-2.1,35.2-3.2c0.6-109.2,38.6-201,118.7-273.3C945.6,833.7,1040.9,805.7,1149.8,816.1z
	 M1105.7,961.4c-76.8,0.7-152.7,45.6-187.9,114.3c-40.1,78.4-24.5,183.6,39.5,244.8c65.7,62.8,169.2,79.7,249.7,35.1
	c76.3-42.3,120.7-135.7,105.1-221.6c-15.6-85.9-89.9-157.8-176.2-170.5C1125.8,961.9,1115.8,961.3,1105.7,961.4z"/>
<path d="M2843.6,820c0,8,0,13.6,0,19.3c0,70.3,0,140.7,0,211c0,3.8,0.2,7.6-0.2,11.3c-1.2,10.9-7.3,17.6-18.4,17.8
	c-28.8,0.5-57.6,0.5-86.4,0c-11.9-0.2-17.8-6.8-18.8-18.7c-0.3-3.3-0.1-6.6-0.1-9.9c0-202,0-404.1,0-606.1c0-3.3-0.1-6.6,0.1-9.9
	c0.8-12.7,7-18.8,19.4-19.6c1.9-0.1,3.8,0,5.7,0c88.7,0,177.5-0.3,266.2,0.1c85.4,0.4,160.9,52.4,191.5,130.8
	c31.7,81.2,8,169.6-60.4,226.1c-19.4,16-41,28.4-65.7,39.2c2.6,5,4.8,9.4,7.1,13.8c38.9,72.3,77.9,144.5,116.8,216.8
	c2.5,4.6,5.2,9.1,6.6,14c3.7,12.3-2.5,23-15.2,23.2c-28.8,0.6-57.7,1.2-86.3-1c-19.3-1.4-34-13.5-42.9-31.1
	c-16.5-32.4-79.4-157-94.1-187.1c-13.5-27.5-35.1-40.8-65.7-40.1C2883.8,820.3,2864.6,820,2843.6,820z M2845.4,529.9
	c0,62.7,0,124.6,0,187c2.6,0.4,4.4,1,6.1,1c50.4,0.1,100.9,1.3,151.3-0.2c61-1.8,104.9-67.1,85.3-124.4
	c-12.8-37.6-48.9-63.7-89.6-64c-47.6-0.4-95.2-0.1-142.9-0.1C2852.5,529.2,2849.3,529.6,2845.4,529.9z"/>
<path d="M1762.5,444.7c0-3.3-0.1-6.6,0.1-9.9c0.7-12.3,7.1-19.2,19.5-19.5c16-0.4,32.1-0.6,48.1,0.2c27.3,1.4,52.1,23.7,57,51
	c1.4,7.8,1.7,16,1.7,23.9c0.1,107.1,0.1,214.3,0.1,321.4c0,18.9,1.1,37.6,6.4,56c16.6,56.9,67,102,141.8,97.5
	c61.4-3.7,113.1-48.8,124.3-110.9c2.4-13.4,3.8-263.6,3-374.9c-0.2-23.6,16.5-53.7,46.8-62c4.1-1.1,8.3-2,12.5-2.1
	c15.6-0.3,31.2-0.5,46.7-0.2c13.3,0.3,19.8,6.8,20.6,20c0.2,3.3,0.1,6.6,0.1,9.9c0,127.4,0.1,254.8,0,382.3
	c-0.1,131-92.8,238.8-222.3,258.8c-127.6,19.7-248.7-50.6-291.1-169c-10.1-28.2-15.3-57.3-15.2-87.4
	C1762.6,766.5,1762.5,509.8,1762.5,444.7z"/>
<path d="M3987.6,959c-94.6,0-188.4,0-283.3,0c-2.9,6.1-6,12.3-8.9,18.6c-9.4,20.6-18.7,41.2-28.1,61.8
	c-12.2,26.7-32.7,40.5-62.4,40.3c-17.5-0.2-34.9,0.1-52.4-0.1c-21.5-0.2-28.1-10.5-19-30.1c47-101.9,240-519.7,289.5-626.7
	c7.2-15.5,11.4-17.9,26.9-17.5c9.7,0.2,15.7,4.5,19.7,13.3c10,22.4,20.4,44.6,30.6,66.9c85.1,186.1,170.3,372.2,255.4,558.3
	c2,4.3,4.2,8.5,5.6,13c3.5,11.9-2.2,22-14.3,22.3c-25.4,0.6-51.1,1.4-76.3-1.2c-20.3-2.1-35.1-15.6-43.9-34.2
	c-11.5-24.3-22.4-48.8-33.6-73.3C3991.5,967,3989.8,963.6,3987.6,959z M3940.4,851.7c-31.7-69.8-62.7-138.2-93.8-206.6
	c-1-0.1-2.1-0.2-3.1-0.3c-30.5,68.5-61,137-92.1,206.8C3815.1,851.7,3876.7,851.7,3940.4,851.7z"/>
<path d="M4682.7,405.9c68.7-0.1,130.6,21.5,186.9,60c16.1,11,18.1,22.2,7.7,38.5c-4.8,7.5-9.8,15-14.9,22.4
	c-18.2,25.9-49.7,35-78.9,22.6c-7.4-3.1-14.4-7.1-21.6-10.6c-20.4-10-41.3-18.8-63.7-22.8c-23.4-4.2-46.1-2-67.2,9.7
	c-36.9,20.5-46.5,62.1-22.4,96.7c9.9,14.2,22.8,25.4,37.8,33.6c20.2,11,41.2,20.9,62,30.8c26.3,12.6,53.7,23.5,79,37.8
	c20.4,11.5,40.1,25.3,57.3,41c91.3,83.4,78,222.1-26.6,288.1c-33.9,21.4-71.2,32.6-110.9,34.8c-73.2,4.1-141.6-11.4-203-52.9
	c-10.1-6.8-19.2-15.2-28.5-23.2c-7.5-6.5-8.3-14.6-3.6-23c6-10.7,11.6-21.7,18.6-31.7c16.6-23.7,52.4-31.4,78.8-17.9
	c17.6,9,35.1,18.4,53.2,26.3c21.4,9.2,43.8,14.7,67.4,13.4c14.9-0.8,28.9-4.6,41.8-12c37.5-21.2,48.5-64.4,26-101.2
	c-9.6-15.6-22.6-28.2-38.3-37.1c-22.1-12.5-45.1-23.6-67.8-34.8c-23.2-11.5-47.4-21.3-69.8-34.2c-18.2-10.5-35.8-23.2-51.3-37.4
	c-104.6-96.3-68.3-260.4,66.9-304.4C4625.2,409.4,4653.6,405.5,4682.7,405.9z"/>
</svg>
