<?xml version="1.0" encoding="utf-8"?>
<!-- Generator: Adobe Illustrator 19.0.0, SVG Export Plug-In . SVG Version: 6.00 Build 0)  -->
<svg version="1.1" id="Layer_1" xmlns="http://www.w3.org/2000/svg" xmlns:xlink="http://www.w3.org/1999/xlink" x="0px" y="0px"
	 viewBox="-5703 3467.9 1513 1568" style="enable-background:new -5703 3467.9 1513 1568;" xml:space="preserve">
<path d="M-4923,4791.6c-383.2,65.6-739.5-226.1-746.3-619.9c-6.2-363.7,296.2-670.9,678.3-647.2c200.6,12.4,362.7,102.7,479.8,266.3
	c117.1,163.7,145.4,345.8,97.5,539.5c143.6,101.4,201.5,235.4,159.7,408.4c-46.5,142.9-143.6,230.1-291.7,254.2
	C-4702.7,5018.4-4854.7,4934.6-4923,4791.6z M-4553.2,4284c1.4-5.2,2.9-9.2,3.6-13.2c33.9-192.4-32-384.2-189.7-503.6
	c-40.5-30.7-85.7-55.1-133.8-71.4c-179.9-60.9-393.3-5.7-521,134.7c-127.7,140.4-162.5,358.1-84.9,531.4
	c73.7,164.7,244.8,280.4,424.7,289.9c20.9,1.1,41.8-0.3,62.8-1.3c11.6-0.5,23.2-2.1,35.2-3.2c0.6-109.2,38.6-201,118.7-273.3
	C-4757.4,4301.6-4662.1,4273.6-4553.2,4284z M-4597.3,4429.3c-76.8,0.7-152.7,45.6-187.9,114.3c-40.1,78.4-24.5,183.6,39.5,244.8
	c65.7,62.8,169.2,79.7,249.7,35.1c76.3-42.3,120.7-135.7,105.1-221.6c-15.6-85.9-89.9-157.8-176.2-170.5
	C-4577.2,4429.8-4587.2,4429.2-4597.3,4429.3z"/>
</svg>
